<svg xmlns="http://www.w3.org/2000/svg" width="388.8" height="42.7767" viewBox="0 0 102.87 11.318">
  <rect width="102.87" height="11.318" x="-.0005" fill="#fff" fill-rule="evenodd" rx="5.659" ry="5.659"/>
  <path stroke="#fff" stroke-width=".765" d="M58.248 75.175q-.2953.1716-.6105.2554-.3113.0878-.6385.0878-1.0375 0-1.624-.6225-.5827-.6225-.5827-1.7238t.5826-1.7238q.5866-.6225 1.6241-.6225.3232 0 .6305.0838t.6185.2593v.7702q-.2913-.2594-.5866-.3751-.2913-.1157-.6624-.1157-.6903 0-1.0614.4469-.3711.447-.3711 1.2769 0 .826.3711 1.2769.3751.447 1.0614.447.383 0 .6864-.1158.3032-.1197.5626-.3671zm3.1444-3.727q-.5587 0-.846.435-.2873.4349-.2873 1.2888 0 .85.2873 1.289.2873.4349.846.4349.5626 0 .85-.435.2873-.4389.2873-1.2889 0-.8539-.2874-1.2889-.2873-.4349-.8499-.4349zm0-.6225q.9298 0 1.4206.6025.4948.6026.4948 1.7438 0 1.1452-.4908 1.7478-.4908.5986-1.4246.5986-.9298 0-1.4206-.5986-.4908-.6025-.4908-1.7478 0-1.1413.4908-1.7438t1.4206-.6025zm6.656 1.8076v2.7693h-.7382v-2.7693q0-.6026-.2115-.8859t-.6624-.2833q-.5148 0-.7941.3671-.2753.3632-.2753 1.0455v2.526h-.7343v-4.4693h.7343v.6704q.1955-.383.5307-.5786.3352-.1995.794-.1995.6824 0 1.0176.4509.3392.447.3392 1.3567zm3.1764-2.9689v1.2689h1.668v.5706h-1.668V73.93q0 .4948.1875.6904t.6545.1955h.826v.5866h-.8979q-.826 0-1.1652-.3312-.3391-.3312-.3391-1.1413v-2.4262h-1.1931v-.5706h1.193v-1.269zm5.2713 3.4916h-.2434q-.6425 0-.9697.2274-.3232.2235-.3232.6704 0 .403.2434.6265t.6744.2235q.6065 0 .9537-.419.3472-.423.3511-1.1652v-.1636zm1.4246-.3033v2.55h-.7382V74.74q-.2355.399-.5946.5906-.3551.1876-.866.1876-.6823 0-1.0893-.3831-.407-.387-.407-1.0335 0-.7462.4988-1.1333.5028-.387 1.4725-.387h.9856v-.1158q-.004-.5347-.2714-.7742-.2673-.2434-.8539-.2434-.375 0-.7582.1078t-.7462.3152v-.7342q.407-.1556.7782-.2315.375-.0798.7262-.0798.5547 0 .9457.1636.395.1637.6385.4909.1516.1995.2155.4948.0638.2913.0638.8779zm4.9281 2.3224q-.2953.1716-.6105.2554-.3113.0878-.6385.0878-1.0375 0-1.624-.6225-.5827-.6225-.5827-1.7238t.5826-1.7238q.5866-.6225 1.6241-.6225.3232 0 .6305.0838t.6185.2594v.7701q-.2913-.2594-.5866-.375-.2913-.1158-.6624-.1158-.6903 0-1.0614.447-.3711.4468-.3711 1.2768 0 .826.3711 1.277.3751.4468 1.0614.4468.383 0 .6864-.1157.3032-.1197.5626-.3671zm3.1364-5.5107v1.269h1.668v.5705h-1.668V73.93q0 .4948.1875.6903t.6545.1955h.826v.5866h-.8979q-.826 0-1.1652-.3312-.3391-.3312-.3391-1.1413v-2.4262h-1.1931v-.5706h1.193v-1.269zm6.6121 3.5634q0-.5147-.2554-.822-.2554-.3112-.6823-.3112t-.6864.3112q-.2554.3073-.2554.822 0 .5188.2554.83.2594.3073.6864.3073t.6823-.3073q.2554-.3112.2554-.83zm.5587 1.6361h-.5747v-.4429q-.1476.2514-.411.387-.2594.1357-.5866.1357-.6424 0-1.0654-.4828-.419-.4828-.419-1.233 0-.7502.419-1.233.423-.4828 1.0654-.4828.3193 0 .5866.1396t.411.3831v-.2514q0-.6225-.3511-1.0016-.3512-.379-.9298-.379-.9816 0-1.5642.766-.5786.7622-.5786 2.067 0 1.3129.6584 2.091.6584.7782 1.7518.7782.2155 0 .431-.0399t.443-.1237l.1915.5387q-.2514.0998-.4988.1477-.2434.0478-.4749.0478-1.4246 0-2.2626-.9297-.834-.9298-.834-2.51 0-1.5563.7502-2.478.7502-.9218 2.0112-.9218.834 0 1.3328.5307t.4988 1.4246zm4.8284-3.0088q-.2355-.1835-.4789-.2673-.2434-.0838-.5347-.0838-.6864 0-1.0495.431-.3631.4309-.3631 1.245v2.2225H94.82v-4.4692h.7382v.874q.1835-.475.5626-.7263.383-.2554.9058-.2554.2714 0 .5068.0678t.451.2115zm2.7693-.407q-.5587 0-.846.435t-.2873 1.2889q0 .85.2873 1.2889.2873.435.846.435.5626 0 .85-.435.2872-.439.2872-1.289 0-.8539-.2873-1.2888-.2873-.435-.85-.435zm0-.6225q.9297 0 1.4206.6026.4948.6025.4948 1.7438 0 1.1452-.4909 1.7478-.4908.5985-1.4246.5985-.9297 0-1.4206-.5985-.4908-.6026-.4908-1.7478 0-1.1413.4908-1.7438t1.4207-.6026zm6.1252 2.3464q0-.854-.2714-1.2889-.2713-.435-.802-.435-.5348 0-.8101.439-.2753.435-.2753 1.2849 0 .846.2753 1.2849.2753.439.81.439.5308 0 .8021-.435.2714-.435.2714-1.289zm-2.1588-1.668q.1755-.3272.4828-.5028.3112-.1756.7183-.1756.806 0 1.269.6225.4628.6185.4628 1.708 0 1.1052-.4668 1.7357-.463.6265-1.273.6265-.399 0-.7062-.1716-.3033-.1755-.4868-.5067v.5626h-.7343v-6.209h.7343zm4.4373-.5706h1.8795v3.8986h1.4565v.5706h-3.6472v-.5706h1.4565v-3.328h-1.1452zm1.1452-1.7398h.7342v.9297h-.7342zm6.9473 3.4397v2.7693h-.7383V72.633q0-.6026-.2115-.8859t-.6624-.2833q-.5147 0-.794.3671-.2754.3631-.2754 1.0455v2.526h-.7342v-4.4693h.7342v.6704q.1955-.383.5307-.5786.3352-.1995.7941-.1995.6824 0 1.0176.4509.3392.4469.3392 1.3567zm2.6776 1.5523h1.0056v1.217h-1.0056zm7.4062-1.2011v.3591h-3.1803v.024q0 .7302.379 1.1293.3831.399 1.0775.399.3511 0 .7342-.1117t.818-.3392v.7302q-.419.1716-.81.2554-.3871.0878-.7502.0878-1.0415 0-1.6281-.6225-.5866-.6265-.5866-1.7238 0-1.0694.5746-1.7079.5746-.6385 1.5323-.6385.854 0 1.3448.5787.4948.5786.4948 1.5802zm-.7343-.2155q-.016-.6464-.3072-.9816-.2873-.3392-.83-.3392-.5307 0-.874.3511-.3431.3512-.407.9737zm4.0183.387h-.2434q-.6424 0-.9696.2275-.3233.2235-.3233.6704 0 .403.2434.6265t.6744.2235q.6066 0 .9537-.419.3472-.423.3512-1.1652v-.1636zm1.4246-.3032v2.55h-.7382V74.74q-.2354.399-.5946.5906-.3551.1875-.8659.1875-.6823 0-1.0894-.383-.407-.3871-.407-1.0335 0-.7462.4988-1.1333.5028-.3871 1.4725-.3871h.9856v-.1157q-.004-.5347-.2713-.7742-.2674-.2434-.854-.2434-.375 0-.7581.1078t-.7462.3152v-.7342q.407-.1557.778-.2315.3752-.0798.7263-.0798.5547 0 .9458.1636.395.1636.6384.4908.1516.1996.2155.4949.0639.2913.0639.8778zm5.3032-.9976q-.2354-.1836-.4788-.2674-.2434-.0838-.5347-.0838-.6864 0-1.0495.431-.3631.431-.3631 1.245v2.2226h-.7383v-4.4692h.7383v.874q.1835-.475.5626-.7263.383-.2554.9058-.2554.2714 0 .5068.0678t.4509.2115zm2.7614-2.1907v1.269h1.668v.5705h-1.668V73.93q0 .4948.1876.6904t.6544.1955h.826v.5866h-.8978q-.826 0-1.1652-.3312-.3392-.3312-.3392-1.1413v-2.4262h-1.1931v-.5706h1.1931v-1.269zm6.664 2.969v2.7692h-.7382v-2.7693q0-.6025-.2115-.8859t-.6624-.2833q-.5147 0-.794.3671-.2754.3632-.2754 1.0455v2.526h-.7342v-6.209h.7342v2.4101q.1955-.383.5307-.5786.3352-.1995.7941-.1995.6824 0 1.0176.451.3392.4468.3392 1.3566z" style="paint-order:stroke fill markers" transform="translate(-49.346 -67.275)"/>
</svg>
